<svg id="svg" xmlns="http://www.w3.org/2000/svg" xmlns:xlink="http://www.w3.org/1999/xlink" width="400" height="400" viewBox="0, 0, 400,400"><g id="svgg"><path id="path0" d="M156.788 3.659 C 22.914 31.764,-43.215 188.640,29.683 305.187 C 117.432 445.478,331.351 422.901,386.898 267.487 C 439.816 119.429,310.666 -28.645,156.788 3.659 M222.913 14.713 C 376.573 35.169,439.506 222.416,329.408 331.571 C 310.734 350.084,310.885 350.051,291.102 340.033 C 258.841 323.696,246.599 296.661,261.120 273.819 C 266.154 265.901,271.309 252.717,273.739 241.548 C 274.289 239.022,277.428 235.165,280.818 232.852 C 291.821 225.343,297.031 203.448,291.352 188.578 C 288.894 182.142,288.249 174.344,288.009 148.128 C 287.553 98.521,277.031 79.106,247.745 73.836 C 243.964 73.155,235.311 69.916,228.517 66.638 C 205.492 55.528,174.476 56.946,146.417 70.393 C 112.061 86.858,100.841 114.523,108.747 163.272 C 111.330 179.202,111.304 179.772,107.639 187.343 C 100.806 201.458,107.011 228.343,118.251 233.318 C 122.430 235.168,123.697 237.338,126.036 246.650 C 128.505 256.477,133.364 267.309,140.520 278.937 C 143.895 284.421,142.272 305.293,137.792 314.032 C 130.734 327.799,96.707 350.051,87.287 347.061 C 81.347 345.176,54.783 317.186,44.702 302.192 C -33.890 185.286,43.757 25.031,184.348 13.979 C 193.435 13.264,201.652 12.581,202.609 12.461 C 203.565 12.340,212.702 13.354,222.913 14.713 M210.400 74.938 C 215.258 75.979,221.361 78.600,223.964 80.760 C 226.629 82.973,232.272 85.165,236.883 85.779 C 267.227 89.821,276.276 107.726,274.246 159.707 C 273.272 184.667,273.441 186.913,276.598 190.927 C 282.959 199.013,279.771 217.361,271.240 221.773 C 264.602 225.205,262.045 229.584,258.325 243.892 C 256.649 250.336,252.439 260.119,248.970 265.631 C 230.548 294.903,245.800 333.523,283.043 351.904 C 296.728 358.658,296.758 358.529,279.565 366.815 C 227.926 391.701,173.511 391.594,119.565 366.502 C 101.249 357.982,101.381 358.765,116.957 350.993 C 153.183 332.918,167.135 293.823,147.785 264.610 C 142.535 256.683,137.391 242.464,137.391 235.876 C 137.391 233.900,133.477 228.767,128.374 224.051 C 117.191 213.716,114.209 198.450,121.795 190.375 L 125.761 186.153 122.881 168.807 C 113.491 112.269,126.029 88.301,171.192 76.457 C 185.386 72.735,197.871 72.251,210.400 74.938 " stroke="none" fill="#000000" fill-rule="evenodd"></path></g></svg>