<svg id="svg" xmlns="http://www.w3.org/2000/svg" xmlns:xlink="http://www.w3.org/1999/xlink" width="400" height="400" viewBox="0, 0, 400,400"><g id="svgg"><path id="path0" d="M178.021 40.719 L 154.219 64.772 201.133 111.553 C 255.797 166.061,250.563 164.380,278.267 136.327 C 305.889 108.359,307.502 113.586,255.140 61.387 C 202.488 8.899,208.038 10.386,178.021 40.719 M109.343 109.398 L 83.418 135.556 201.111 253.195 C 265.842 317.896,320.731 370.833,323.086 370.833 C 328.506 370.833,370.833 328.216,370.833 322.758 C 370.833 320.524,317.831 265.718,253.051 200.967 L 135.269 83.240 109.343 109.398 M40.527 178.213 C 10.465 208.592,8.888 202.804,61.526 255.279 C 113.903 307.494,108.948 305.995,136.601 277.994 C 164.269 249.977,166.080 255.506,111.360 200.941 L 64.387 154.101 40.527 178.213 M16.667 366.667 L 16.667 383.333 116.667 383.333 L 216.667 383.333 216.667 366.667 L 216.667 350.000 116.667 350.000 L 16.667 350.000 16.667 366.667 " stroke="none" fill="#000000" fill-rule="evenodd"></path></g></svg>