<svg id="svg" xmlns="http://www.w3.org/2000/svg" xmlns:xlink="http://www.w3.org/1999/xlink" width="400" height="400" viewBox="0, 0, 400,400"><g id="svgg"><path id="path0" d="M162.022 33.333 L 146.167 50.000 106.417 50.000 C 45.773 50.000,50.000 38.762,50.000 200.000 C 50.000 327.778,50.347 333.681,58.333 341.667 C 71.290 354.623,328.710 354.623,341.667 341.667 C 349.653 333.681,350.000 327.778,350.000 200.000 C 350.000 38.762,354.227 50.000,293.583 50.000 L 253.833 50.000 237.978 33.333 C 223.366 17.972,220.391 16.667,200.000 16.667 C 179.609 16.667,176.634 17.972,162.022 33.333 M210.417 66.667 C 210.417 78.966,193.341 84.211,189.119 73.209 C 184.970 62.398,190.785 53.462,201.023 54.916 C 207.909 55.894,210.417 59.030,210.417 66.667 M222.032 125.355 C 248.694 137.503,253.802 176.198,231.667 198.333 C 201.201 228.799,153.852 208.904,154.314 165.832 C 154.689 130.983,189.161 110.378,222.032 125.355 M252.132 254.543 C 283.658 266.338,295.087 277.315,298.375 298.958 L 301.065 316.667 200.000 316.667 L 98.935 316.667 101.733 298.958 C 108.718 254.743,189.167 230.985,252.132 254.543 " stroke="none" fill="#000000" fill-rule="evenodd"></path></g></svg>