<svg id="svg" xmlns="http://www.w3.org/2000/svg" xmlns:xlink="http://www.w3.org/1999/xlink" width="400" height="400" viewBox="0, 0, 400,400"><g id="svgg"><path id="path0" d="M58.333 58.333 C 51.111 65.556,50.000 72.222,50.000 108.333 L 50.000 150.000 66.667 150.000 L 83.333 150.000 83.333 116.667 L 83.333 83.333 200.000 83.333 L 316.667 83.333 316.667 200.000 L 316.667 316.667 200.000 316.667 L 83.333 316.667 83.333 283.333 L 83.333 250.000 66.667 250.000 L 50.000 250.000 50.000 291.667 C 50.000 354.548,38.304 350.000,200.000 350.000 C 327.778 350.000,333.681 349.653,341.667 341.667 C 354.623 328.710,354.623 71.290,341.667 58.333 C 333.681 50.347,327.778 50.000,200.000 50.000 C 72.222 50.000,66.319 50.347,58.333 58.333 M177.031 129.221 L 165.004 141.775 185.470 162.554 L 205.937 183.333 127.968 183.333 L 50.000 183.333 50.000 200.000 L 50.000 216.667 127.968 216.667 L 205.937 216.667 185.379 237.539 L 164.821 258.410 178.271 271.861 L 191.721 285.311 234.351 242.682 L 276.980 200.053 235.443 158.360 C 187.833 110.571,192.614 112.956,177.031 129.221 " stroke="none" fill="#000000" fill-rule="evenodd"></path></g></svg>