<svg id="svg" xmlns="http://www.w3.org/2000/svg" xmlns:xlink="http://www.w3.org/1999/xlink" width="400" height="400" viewBox="0, 0, 400,400"><g id="svgg"><path id="path0" d="M146.890 39.192 C 30.378 77.076,-6.080 231.907,81.007 318.993 C 145.361 383.348,254.639 383.348,318.993 318.993 C 441.761 196.226,312.125 -14.534,146.890 39.192 M252.356 80.743 C 380.373 140.354,340.581 329.167,200.000 329.167 C 62.521 329.167,19.490 145.044,142.592 83.528 C 176.251 66.709,219.842 65.603,252.356 80.743 M163.504 108.311 C 129.796 128.862,122.398 166.667,152.083 166.667 C 165.972 166.667,170.833 165.046,170.833 160.417 C 170.833 149.975,186.711 137.500,200.000 137.500 C 231.020 137.500,238.682 169.600,213.164 192.654 C 176.218 226.033,171.587 250.000,202.083 250.000 C 216.774 250.000,220.833 248.503,220.833 243.085 C 220.833 239.282,231.146 225.359,243.750 212.144 C 301.016 152.107,233.967 65.349,163.504 108.311 M183.333 283.333 L 183.333 300.000 200.000 300.000 L 216.667 300.000 216.667 283.333 L 216.667 266.667 200.000 266.667 L 183.333 266.667 183.333 283.333 " stroke="none" fill="#000000" fill-rule="evenodd"></path></g></svg>