<svg id="svg" version="1.1" xmlns="http://www.w3.org/2000/svg" xmlns:xlink="http://www.w3.org/1999/xlink" width="400" height="399.0476190476191" viewBox="0, 0, 400,399.0476190476191"><g id="svgg"><path id="path0" d="M190.584 18.109 C 190.457 18.440,189.448 18.750,188.005 18.901 C 185.731 19.139,180.708 21.258,179.242 22.599 C 178.912 22.900,170.649 31.008,160.878 40.617 C 151.108 50.226,139.800 61.320,135.751 65.271 C 131.701 69.222,117.840 82.964,104.948 95.808 C 80.385 120.281,79.617 121.146,78.023 126.148 C 77.638 127.355,77.162 128.552,76.965 128.808 C 76.767 129.063,76.499 130.546,76.369 132.101 C 76.238 133.657,75.978 134.930,75.790 134.930 C 75.603 134.930,75.449 135.379,75.449 135.928 C 75.449 136.477,75.606 136.926,75.798 136.926 C 75.989 136.926,76.230 137.799,76.332 138.866 C 76.564 141.280,78.326 144.045,80.247 145.009 C 82.404 146.093,169.897 146.093,169.472 145.010 C 169.321 144.626,168.830 142.425,168.380 140.120 C 167.930 137.814,167.403 135.613,167.209 135.228 C 166.108 133.037,165.758 111.414,166.817 111.061 C 167.039 110.987,167.117 110.656,166.990 110.327 C 166.864 109.997,166.944 109.335,167.169 108.855 C 167.394 108.376,167.885 106.457,168.259 104.591 C 168.633 102.725,169.258 100.479,169.649 99.601 C 170.039 98.723,170.588 97.285,170.868 96.407 C 171.595 94.129,175.896 85.827,177.158 84.265 C 177.439 83.917,178.756 82.149,180.085 80.335 C 191.894 64.218,211.790 53.801,233.070 52.593 L 234.803 52.495 226.883 44.658 C 201.882 19.921,200.435 18.762,194.538 18.762 C 193.627 18.762,193.214 18.576,193.214 18.164 C 193.214 17.392,190.878 17.343,190.584 18.109 " stroke="none" fill="#0494a4" fill-rule="evenodd"></path><path id="path1" d="M238.323 59.082 C 238.323 59.301,237.784 59.481,237.126 59.481 L 235.928 59.481 235.928 68.862 L 235.928 78.244 237.425 78.266 C 241.179 78.324,248.703 79.658,248.703 80.266 C 248.703 80.436,249.286 80.700,250.000 80.853 C 252.781 81.449,261.723 87.173,262.227 88.680 C 262.324 88.969,262.180 89.013,261.828 88.801 C 261.361 88.520,261.360 88.572,261.825 89.145 C 262.418 89.876,262.877 90.071,262.475 89.421 C 261.957 88.583,263.411 89.067,263.974 89.920 C 264.301 90.414,265.175 91.478,265.917 92.284 C 266.658 93.091,267.715 94.494,268.263 95.403 C 268.812 96.312,269.688 97.715,270.210 98.519 C 270.731 99.324,271.408 100.705,271.713 101.588 C 272.019 102.471,272.385 103.463,272.527 103.792 C 272.669 104.122,272.816 104.481,272.853 104.591 C 272.891 104.701,273.120 105.267,273.362 105.850 C 273.894 107.127,274.601 110.974,274.709 113.174 C 274.752 114.052,274.958 114.995,275.167 115.269 C 275.412 115.592,275.401 115.768,275.135 115.768 C 274.642 115.768,274.628 119.300,275.120 119.604 C 275.308 119.720,275.327 120.028,275.162 120.287 C 274.818 120.829,274.771 121.025,274.694 122.255 C 274.649 122.987,274.567 123.043,274.251 122.555 C 273.940 122.073,273.863 122.136,273.858 122.878 C 273.855 123.466,274.017 123.698,274.307 123.519 C 274.633 123.317,274.686 123.677,274.493 124.793 C 273.861 128.464,273.292 130.140,272.679 130.146 C 272.218 130.150,272.185 130.234,272.555 130.469 C 272.942 130.714,272.874 131.161,272.256 132.440 C 271.817 133.349,271.457 134.301,271.457 134.554 C 271.457 134.818,271.176 134.908,270.802 134.764 C 270.284 134.565,270.241 134.627,270.599 135.058 C 270.952 135.483,270.716 136.084,269.541 137.762 C 268.709 138.949,268.018 140.077,268.004 140.269 C 267.957 140.936,264.613 144.522,264.248 144.297 C 264.047 144.172,263.978 144.323,264.097 144.631 C 264.571 145.867,254.879 152.895,252.500 153.039 C 251.883 153.077,251.666 153.282,251.811 153.693 C 251.928 154.022,251.877 154.158,251.697 153.995 C 251.518 153.833,251.175 153.861,250.935 154.058 C 250.460 154.447,246.198 155.755,244.910 155.906 C 244.471 155.957,243.349 156.206,242.417 156.458 C 241.230 156.779,240.490 156.792,239.948 156.502 C 238.876 155.928,238.707 155.980,239.009 156.786 C 239.233 157.383,239.178 157.410,238.637 156.969 C 238.118 156.548,237.967 156.548,237.813 156.969 C 237.662 157.382,237.519 157.386,237.096 156.986 C 236.805 156.712,236.423 156.487,236.248 156.487 C 236.072 156.487,235.928 176.367,235.928 200.665 L 235.928 244.844 237.115 243.679 C 237.767 243.039,238.306 242.330,238.312 242.104 C 238.318 241.878,238.683 241.434,239.122 241.118 C 239.561 240.801,239.920 240.356,239.920 240.128 C 239.920 239.673,241.546 238.505,242.002 238.633 C 242.158 238.677,242.180 238.434,242.049 238.093 C 241.905 237.719,242.276 236.968,242.983 236.201 C 243.627 235.502,244.861 234.032,245.724 232.934 C 246.586 231.836,247.700 230.491,248.197 229.944 C 248.695 229.398,249.102 228.827,249.102 228.677 C 249.102 228.050,251.205 225.967,251.595 226.208 C 251.851 226.366,251.902 226.280,251.724 225.993 C 251.453 225.554,252.072 224.550,254.146 222.062 C 254.555 221.571,255.748 219.955,256.796 218.469 C 257.845 216.984,259.879 214.152,261.317 212.176 C 262.755 210.200,264.094 208.179,264.291 207.685 C 264.489 207.191,264.815 206.786,265.014 206.786 C 265.214 206.786,265.673 206.203,266.033 205.489 C 266.760 204.050,267.559 202.701,267.864 202.395 C 268.281 201.978,270.659 198.370,270.659 198.154 C 270.659 198.029,271.018 197.423,271.458 196.806 C 271.897 196.189,272.859 194.634,273.595 193.351 C 278.388 185.001,279.441 183.088,279.441 182.740 C 279.441 182.526,279.755 182.469,280.140 182.616 C 280.644 182.807,280.718 182.760,280.406 182.445 C 279.930 181.966,283.340 174.745,283.883 175.081 C 284.044 175.181,284.306 175.052,284.465 174.795 C 284.646 174.503,284.581 174.435,284.293 174.613 C 283.598 175.042,283.709 174.680,285.230 171.546 C 285.998 169.962,286.627 168.462,286.627 168.214 C 286.627 167.966,286.896 167.539,287.226 167.265 C 287.555 166.992,287.824 166.519,287.824 166.214 C 287.824 165.909,288.167 164.898,288.587 163.968 C 291.009 158.592,294.989 146.651,295.834 142.223 C 296.095 140.855,296.433 139.813,296.585 139.907 C 296.737 140.001,296.792 139.593,296.707 139.001 C 296.621 138.409,296.754 137.116,297.002 136.128 C 297.566 133.878,297.729 132.933,298.066 129.957 C 298.249 128.340,298.424 127.829,298.613 128.360 C 298.767 128.790,298.872 126.717,298.847 123.752 C 298.822 120.676,298.631 118.237,298.403 118.070 C 298.156 117.888,298.194 117.774,298.503 117.771 C 298.777 117.767,299.002 117.574,299.002 117.342 C 299.002 117.109,298.822 117.030,298.603 117.166 C 298.364 117.313,298.176 116.723,298.135 115.692 C 298.069 114.026,297.964 112.987,297.819 112.575 C 297.671 112.151,297.319 109.938,297.263 109.082 C 297.232 108.588,297.052 108.184,296.863 108.184 C 296.675 108.184,296.623 107.920,296.746 107.597 C 296.870 107.275,296.711 106.511,296.392 105.901 C 296.074 105.290,295.812 104.564,295.811 104.287 C 295.808 103.700,292.964 96.104,292.636 95.808 C 292.515 95.699,291.901 94.531,291.273 93.214 C 287.137 84.541,276.718 73.295,268.862 69.024 C 267.984 68.547,267.176 68.022,267.066 67.857 C 266.956 67.692,265.968 67.148,264.870 66.647 C 263.772 66.146,262.605 65.520,262.275 65.255 C 261.946 64.990,260.689 64.457,259.481 64.070 C 258.273 63.684,257.033 63.167,256.725 62.921 C 256.417 62.676,256.147 62.515,256.126 62.564 C 256.010 62.831,254.291 62.122,254.291 61.806 C 254.291 61.599,254.129 61.531,253.930 61.654 C 253.467 61.940,247.433 60.796,247.133 60.365 C 247.008 60.186,245.783 60.049,244.411 60.060 C 243.039 60.071,241.916 59.945,241.916 59.780 C 241.916 59.616,241.187 59.481,240.296 59.481 C 239.317 59.481,238.773 59.323,238.922 59.082 C 239.058 58.862,238.979 58.683,238.746 58.683 C 238.514 58.683,238.323 58.862,238.323 59.082 M24.457 278.530 C 25.063 278.622,25.962 278.619,26.453 278.525 C 26.944 278.430,26.447 278.355,25.349 278.358 C 24.251 278.361,23.850 278.438,24.457 278.530 " stroke="none" fill="#dc4444" fill-rule="evenodd"></path><path id="path2" d="M204.234 21.723 C 204.367 22.071,204.639 22.355,204.838 22.355 C 205.037 22.355,207.353 24.484,209.985 27.086 C 212.617 29.688,214.770 31.701,214.770 31.560 C 214.770 31.187,207.294 23.705,205.506 22.290 C 204.597 21.570,204.088 21.343,204.234 21.723 M215.991 32.965 C 216.527 33.640,217.197 34.194,217.478 34.195 C 217.760 34.197,217.850 34.091,217.678 33.959 C 217.506 33.828,216.836 33.274,216.190 32.729 L 215.015 31.737 215.991 32.965 M218.797 35.776 C 219.327 36.460,219.841 36.949,219.939 36.861 C 220.037 36.774,219.603 36.214,218.975 35.617 L 217.833 34.531 218.797 35.776 M120.947 35.904 C 119.438 36.363,117.369 38.429,116.520 40.324 C 115.686 42.188,115.322 83.110,116.135 83.613 C 116.337 83.738,122.462 77.960,129.746 70.775 L 142.990 57.710 142.844 49.114 C 142.623 36.125,141.994 35.502,129.144 35.563 C 125.191 35.582,121.502 35.736,120.947 35.904 M227.158 43.812 C 227.165 43.977,227.659 44.457,228.256 44.878 L 229.341 45.644 228.374 44.579 C 227.357 43.459,227.138 43.321,227.158 43.812 M230.339 46.570 C 230.339 46.788,230.833 47.402,231.437 47.934 L 232.535 48.902 231.537 47.705 C 230.988 47.046,230.494 46.432,230.439 46.341 C 230.384 46.249,230.339 46.353,230.339 46.570 M235.497 51.991 C 236.185 52.908,235.950 52.971,230.739 53.256 C 223.570 53.649,215.277 55.442,210.180 57.701 C 209.521 57.993,207.725 58.790,206.188 59.473 C 196.465 63.790,182.872 75.275,179.246 82.236 C 178.960 82.784,178.483 83.377,178.185 83.553 C 177.888 83.728,177.645 84.043,177.645 84.251 C 177.645 85.093,178.305 84.530,179.427 82.734 C 180.077 81.691,180.931 80.604,181.323 80.317 C 181.715 80.030,182.036 79.617,182.036 79.398 C 182.036 78.047,196.792 65.070,198.329 65.070 C 198.521 65.070,198.976 64.741,199.340 64.340 C 199.703 63.938,200.943 63.174,202.096 62.643 C 203.249 62.112,204.251 61.542,204.325 61.377 C 204.398 61.213,204.618 61.078,204.815 61.078 C 205.011 61.078,206.478 60.469,208.075 59.724 C 209.672 58.980,212.146 58.050,213.573 57.657 C 215.000 57.265,216.257 56.814,216.367 56.656 C 216.600 56.319,225.906 54.691,227.595 54.691 C 228.226 54.691,228.743 54.511,228.743 54.291 C 228.743 54.056,230.177 53.890,232.236 53.886 C 236.520 53.879,237.341 53.508,235.951 52.209 C 235.415 51.708,235.211 51.610,235.497 51.991 M176.860 85.802 C 176.355 86.747,176.331 87.145,176.798 86.856 C 177.150 86.638,177.700 85.030,177.422 85.030 C 177.340 85.030,177.088 85.377,176.860 85.802 M174.905 89.036 C 174.658 89.746,174.641 90.149,174.864 90.011 C 175.520 89.606,176.074 88.287,175.689 88.049 C 175.490 87.926,175.137 88.370,174.905 89.036 M167.665 135.505 C 167.665 136.041,167.844 136.591,168.064 136.727 C 168.297 136.870,168.463 136.465,168.463 135.752 C 168.463 135.080,168.283 134.531,168.064 134.531 C 167.844 134.531,167.665 134.969,167.665 135.505 M168.242 137.759 C 168.094 137.998,168.174 138.393,168.418 138.638 C 168.744 138.964,168.862 138.848,168.862 138.204 C 168.862 137.240,168.655 137.091,168.242 137.759 M168.902 140.000 C 168.880 140.484,169.128 141.899,169.453 143.146 C 169.777 144.393,169.946 145.569,169.828 145.760 C 169.710 145.952,157.278 146.108,142.086 146.108 L 114.559 146.108 114.608 169.361 C 114.658 192.827,114.875 198.198,115.910 201.553 C 116.222 202.565,116.882 204.830,117.377 206.587 C 117.872 208.343,118.397 209.870,118.545 209.980 C 118.692 210.090,119.241 211.337,119.764 212.752 C 120.287 214.167,121.039 215.649,121.435 216.046 C 121.831 216.442,122.156 216.967,122.156 217.212 C 122.156 217.611,123.992 220.435,126.797 224.351 C 127.348 225.120,129.537 227.416,131.663 229.454 C 136.922 234.495,137.637 235.130,138.050 235.130 C 138.246 235.130,138.846 235.534,139.384 236.028 C 139.922 236.522,141.161 237.344,142.137 237.856 C 143.113 238.367,144.631 239.217,145.509 239.745 C 146.387 240.273,147.396 240.708,147.751 240.712 C 148.105 240.716,148.824 241.046,149.347 241.445 C 149.871 241.845,151.557 242.499,153.094 242.899 C 154.631 243.299,156.068 243.757,156.287 243.917 C 156.940 244.391,160.405 245.041,164.838 245.520 C 169.174 245.989,231.537 245.640,231.537 245.148 C 231.537 244.718,227.464 239.920,227.100 239.920 C 226.905 239.920,226.747 239.717,226.747 239.470 C 226.747 239.222,226.163 238.357,225.449 237.547 C 224.736 236.737,223.523 235.293,222.754 234.337 C 221.986 233.381,220.900 232.045,220.342 231.369 C 219.783 230.693,218.993 229.601,218.586 228.942 C 218.180 228.283,217.603 227.475,217.305 227.146 C 216.279 226.011,211.775 219.899,211.033 218.633 C 210.624 217.936,210.162 217.275,210.006 217.166 C 209.495 216.806,202.771 206.786,203.040 206.786 C 203.184 206.786,202.829 206.313,202.250 205.734 C 201.671 205.155,201.198 204.459,201.198 204.186 C 201.198 203.914,200.940 203.477,200.625 203.215 C 200.310 202.954,199.662 201.989,199.184 201.071 C 198.707 200.152,198.183 199.311,198.021 199.202 C 197.858 199.092,197.229 198.104,196.622 197.006 C 196.015 195.908,195.382 194.920,195.216 194.810 C 195.049 194.701,194.428 193.678,193.834 192.538 C 193.241 191.399,192.634 190.411,192.485 190.343 C 192.337 190.275,191.771 189.321,191.227 188.224 C 190.684 187.126,190.127 186.138,189.990 186.028 C 189.853 185.918,188.782 184.032,187.610 181.836 C 186.438 179.641,185.367 177.754,185.232 177.645 C 185.096 177.535,184.742 176.816,184.444 176.048 C 184.147 175.279,183.513 174.112,183.035 173.453 C 182.557 172.794,181.831 171.357,181.423 170.259 C 181.015 169.162,180.447 168.120,180.161 167.944 C 179.875 167.769,179.641 167.367,179.641 167.052 C 179.641 166.737,178.767 164.635,177.698 162.381 C 175.134 156.970,174.655 155.860,173.865 153.500 C 173.499 152.406,173.065 151.418,172.901 151.304 C 172.618 151.109,171.443 147.476,170.961 145.309 C 170.839 144.760,170.614 144.222,170.460 144.112 C 170.307 144.002,169.902 142.834,169.561 141.517 C 169.220 140.200,168.924 139.517,168.902 140.000 M234.506 265.894 L 233.333 267.118 233.215 309.108 C 233.089 353.707,233.071 353.259,235.033 354.691 C 237.056 356.166,243.085 355.856,244.672 354.195 L 245.908 352.901 245.908 344.714 C 245.908 340.211,246.048 336.527,246.218 336.527 C 246.513 336.527,248.297 334.924,253.972 329.559 C 258.252 325.513,258.120 325.506,261.488 329.943 C 262.654 331.479,264.220 333.453,264.969 334.331 C 265.717 335.210,266.720 336.421,267.197 337.024 C 267.674 337.626,268.513 338.637,269.062 339.269 C 270.284 340.675,271.797 342.575,272.175 343.175 C 272.523 343.728,274.871 346.564,276.372 348.244 C 276.990 348.935,277.792 349.995,278.155 350.599 C 278.518 351.203,278.941 351.697,279.095 351.697 C 279.250 351.697,279.765 352.325,280.240 353.094 C 280.714 353.862,281.343 354.491,281.636 354.491 C 281.929 354.491,282.244 354.716,282.335 354.990 C 282.704 356.095,290.676 355.639,291.969 354.440 C 294.202 352.369,293.786 349.152,290.862 345.891 C 290.399 345.375,289.616 344.448,289.122 343.833 C 288.629 343.218,287.716 342.086,287.093 341.317 C 286.471 340.549,284.686 338.303,283.125 336.327 C 279.850 332.179,279.233 331.409,277.166 328.890 C 274.595 325.758,273.271 324.103,273.054 323.752 C 272.856 323.433,272.135 322.531,269.139 318.855 L 267.820 317.236 270.756 314.407 C 272.372 312.850,275.995 309.421,278.808 306.786 C 289.721 296.567,289.925 296.340,290.130 294.201 C 290.453 290.844,288.941 289.820,283.661 289.820 C 279.039 289.820,279.998 289.363,275.025 293.935 C 274.024 294.855,271.714 296.956,269.892 298.603 C 268.070 300.250,266.105 302.063,265.525 302.632 C 264.945 303.201,263.979 303.984,263.377 304.372 C 262.775 304.760,262.373 305.224,262.484 305.404 C 262.595 305.584,262.349 305.838,261.938 305.968 C 261.526 306.099,260.656 306.786,260.004 307.494 C 259.352 308.203,258.270 309.232,257.599 309.780 C 256.302 310.841,250.826 315.768,248.170 318.263 C 247.294 319.087,246.426 319.760,246.242 319.760 C 246.059 319.760,245.908 308.002,245.908 293.632 C 245.908 275.332,245.775 267.211,245.465 266.530 C 244.397 264.186,236.577 263.733,234.506 265.894 M296.366 289.695 C 295.905 289.786,294.952 290.453,294.250 291.178 L 292.974 292.495 293.094 313.252 C 293.179 327.973,293.345 334.173,293.666 334.570 C 293.916 334.878,294.245 335.758,294.398 336.527 C 294.744 338.264,295.527 340.652,295.838 340.918 C 295.966 341.028,296.596 342.097,297.237 343.293 C 301.922 352.032,319.793 358.545,329.083 354.899 C 329.554 354.713,331.422 354.162,333.234 353.673 C 335.045 353.183,336.527 352.656,336.527 352.500 C 336.527 352.344,337.254 351.889,338.143 351.489 C 339.031 351.088,339.885 350.562,340.039 350.320 C 340.193 350.079,340.840 349.549,341.477 349.144 L 342.635 348.406 342.422 352.546 C 342.217 356.548,341.587 359.740,340.796 360.783 C 340.586 361.059,340.032 362.001,339.564 362.876 C 338.315 365.210,330.959 370.742,330.932 369.368 C 330.929 369.200,330.778 369.294,330.598 369.578 C 330.418 369.862,329.097 370.289,327.662 370.527 C 319.423 371.892,320.257 382.362,328.609 382.416 C 330.293 382.426,331.730 382.300,331.803 382.136 C 331.876 381.971,333.543 381.431,335.507 380.936 C 337.471 380.440,339.177 379.889,339.299 379.711 C 339.421 379.532,340.419 378.959,341.517 378.436 C 342.615 377.914,343.716 377.298,343.963 377.067 C 344.211 376.836,345.379 375.847,346.558 374.870 C 348.751 373.054,351.381 369.488,352.146 367.294 C 352.381 366.620,352.716 366.068,352.890 366.068 C 353.361 366.068,354.822 360.273,355.132 357.174 C 355.280 355.686,355.552 354.376,355.735 354.263 C 356.223 353.961,356.191 293.106,355.703 292.503 C 353.318 289.553,353.614 289.721,350.427 289.516 C 346.619 289.272,345.002 289.795,343.713 291.688 L 342.715 293.153 342.490 310.948 C 342.327 323.897,342.125 329.177,341.748 330.339 C 340.950 332.802,338.612 336.576,336.926 338.124 C 334.556 340.299,334.304 340.464,332.054 341.327 C 330.891 341.773,329.509 342.357,328.981 342.626 C 327.634 343.311,317.694 343.301,317.465 342.614 C 317.373 342.340,316.999 342.115,316.633 342.114 C 314.892 342.110,309.381 338.307,309.381 337.110 C 309.381 336.843,309.113 336.402,308.786 336.130 C 308.030 335.503,306.587 330.707,306.587 328.823 C 306.587 328.036,306.407 327.281,306.188 327.146 C 305.931 326.987,305.788 320.742,305.788 309.719 C 305.788 290.432,305.829 290.717,302.988 289.866 C 301.562 289.439,298.120 289.350,296.366 289.695 " stroke="none" fill="#04bbd3" fill-rule="evenodd"></path><path id="path3" d="M230.339 59.023 C 230.339 59.209,228.857 59.469,227.046 59.598 C 223.431 59.857,217.565 61.030,217.565 61.494 C 217.565 61.655,216.891 61.910,216.068 62.060 C 213.997 62.436,210.778 63.596,210.778 63.966 C 210.778 64.134,210.554 64.273,210.279 64.275 C 209.692 64.280,205.502 66.189,205.198 66.591 C 205.084 66.742,204.286 67.192,203.425 67.591 C 202.564 67.989,201.397 68.673,200.830 69.109 C 200.264 69.545,198.377 70.999,196.637 72.340 C 193.584 74.692,188.106 79.950,186.686 81.892 C 186.307 82.410,185.194 83.912,184.212 85.230 C 183.230 86.547,181.968 88.564,181.407 89.713 C 180.846 90.861,180.225 91.902,180.026 92.025 C 179.571 92.306,178.044 95.722,178.044 96.458 C 178.044 96.759,177.879 97.006,177.677 97.006 C 177.476 97.006,176.927 98.219,176.458 99.701 C 175.989 101.183,175.424 102.726,175.202 103.129 C 174.728 103.992,173.253 111.493,173.253 113.040 C 173.253 113.626,173.042 114.176,172.783 114.262 C 172.183 114.462,172.145 129.351,172.741 130.655 C 172.962 131.140,173.528 133.952,173.998 136.903 C 174.468 139.855,174.991 142.370,175.160 142.492 C 175.329 142.614,175.884 144.331,176.394 146.307 C 176.904 148.283,177.441 149.989,177.589 150.099 C 177.737 150.209,178.281 151.557,178.798 153.094 C 179.316 154.631,179.986 156.243,180.289 156.676 C 180.591 157.109,180.838 157.711,180.838 158.013 C 180.838 158.315,181.532 160.027,182.380 161.816 C 183.228 163.606,184.058 165.519,184.224 166.068 C 184.390 166.617,184.745 167.335,185.013 167.665 C 185.281 167.994,186.469 170.240,187.654 172.655 C 188.839 175.070,190.020 177.267,190.278 177.538 C 190.536 177.808,191.057 178.841,191.436 179.833 C 191.814 180.825,192.267 181.637,192.440 181.637 C 192.614 181.637,193.226 182.664,193.801 183.920 C 194.376 185.175,194.994 186.298,195.175 186.415 C 195.356 186.531,196.022 187.586,196.654 188.758 C 198.736 192.616,199.121 193.261,199.763 193.971 C 200.113 194.358,200.399 194.813,200.399 194.984 C 200.399 195.154,200.938 196.092,201.597 197.069 C 202.256 198.045,203.060 199.356,203.384 199.983 C 203.708 200.609,204.226 201.375,204.535 201.684 C 204.844 201.993,205.501 203.043,205.994 204.017 C 206.487 204.991,207.136 205.932,207.437 206.108 C 207.738 206.283,207.984 206.573,207.984 206.752 C 207.984 206.930,208.891 208.404,209.999 210.025 C 211.107 211.647,212.489 213.693,213.070 214.571 C 213.651 215.449,214.316 216.348,214.548 216.568 C 214.780 216.788,215.314 217.596,215.735 218.364 C 216.426 219.626,217.692 221.336,219.354 223.253 C 219.688 223.638,219.960 224.033,219.960 224.132 C 219.960 224.480,222.342 227.835,222.943 228.334 C 223.279 228.613,223.553 229.054,223.553 229.315 C 223.553 229.576,223.870 230.138,224.257 230.563 C 224.644 230.989,225.803 232.505,226.833 233.932 C 227.863 235.359,228.941 236.799,229.229 237.131 C 229.516 237.463,230.189 238.362,230.724 239.127 C 231.259 239.893,231.930 240.663,232.215 240.838 C 232.501 241.014,232.735 241.343,232.735 241.569 C 232.735 242.096,235.519 245.509,235.949 245.509 C 236.230 245.509,239.704 241.584,242.416 238.203 C 242.910 237.587,243.689 236.689,244.147 236.207 C 244.606 235.724,245.319 234.790,245.733 234.132 C 246.147 233.473,246.885 232.485,247.372 231.936 C 249.363 229.693,251.497 226.939,251.497 226.612 C 251.497 226.420,251.946 225.909,252.495 225.478 C 253.044 225.046,253.493 224.445,253.493 224.143 C 253.493 223.840,253.730 223.449,254.019 223.273 C 254.309 223.098,255.148 222.056,255.884 220.958 C 256.621 219.860,257.911 218.129,258.751 217.110 C 259.592 216.092,260.279 215.085,260.279 214.873 C 260.279 214.661,260.729 214.003,261.277 213.411 C 261.826 212.819,262.275 212.246,262.275 212.139 C 262.275 211.912,263.955 209.477,264.316 209.182 C 264.450 209.072,264.850 208.415,265.204 207.722 C 265.559 207.030,266.079 206.221,266.359 205.926 C 267.226 205.011,269.242 201.813,269.149 201.497 C 269.101 201.332,269.251 201.198,269.481 201.198 C 269.712 201.198,270.145 200.614,270.443 199.900 C 270.741 199.187,271.336 198.154,271.764 197.605 C 272.192 197.056,272.856 195.995,273.240 195.247 C 273.623 194.499,274.113 193.691,274.328 193.451 C 274.931 192.776,276.923 189.233,277.884 187.126 C 278.360 186.083,278.885 185.230,279.052 185.230 C 279.218 185.230,279.657 184.466,280.027 183.533 C 280.397 182.600,281.212 181.028,281.838 180.040 C 282.465 179.052,283.099 177.750,283.249 177.146 C 283.398 176.542,283.699 176.048,283.918 176.048 C 284.138 176.048,284.216 175.784,284.092 175.462 C 283.968 175.140,284.052 174.762,284.278 174.622 C 284.781 174.311,288.059 167.490,288.437 165.968 C 288.587 165.364,288.841 164.870,289.002 164.870 C 289.163 164.870,289.629 163.748,290.038 162.375 C 290.446 161.003,291.193 159.046,291.698 158.026 C 292.202 157.006,292.615 155.926,292.615 155.625 C 292.615 155.324,292.985 154.093,293.437 152.889 C 294.556 149.910,296.681 142.170,296.750 140.818 C 296.781 140.215,296.916 139.721,297.050 139.721 C 297.184 139.721,297.408 138.867,297.547 137.824 C 297.996 134.463,298.550 130.760,298.728 129.940 C 298.823 129.501,298.774 128.790,298.618 128.360 C 298.424 127.824,298.250 128.325,298.066 129.957 C 297.759 132.666,297.617 133.532,297.017 136.327 C 296.782 137.425,296.309 139.760,295.966 141.517 C 294.940 146.778,291.186 158.199,288.587 163.968 C 288.167 164.898,287.824 165.909,287.824 166.214 C 287.824 166.519,287.555 166.992,287.226 167.265 C 286.896 167.539,286.627 167.979,286.627 168.244 C 286.627 168.509,285.155 171.676,283.356 175.281 C 281.557 178.886,280.120 181.971,280.162 182.136 C 280.205 182.300,280.060 182.435,279.840 182.435 C 279.621 182.435,279.441 182.592,279.441 182.783 C 279.441 183.093,278.340 185.084,273.595 193.351 C 272.859 194.634,271.897 196.189,271.458 196.806 C 271.018 197.423,270.659 198.029,270.659 198.154 C 270.659 198.370,268.281 201.978,267.864 202.395 C 267.559 202.701,266.760 204.050,266.033 205.489 C 265.673 206.203,265.214 206.786,265.014 206.786 C 264.815 206.786,264.489 207.191,264.291 207.685 C 264.094 208.179,262.755 210.200,261.317 212.176 C 259.879 214.152,257.845 216.984,256.796 218.469 C 255.748 219.955,254.554 221.571,254.143 222.062 C 253.042 223.378,250.266 227.034,248.949 228.905 C 248.317 229.804,247.678 230.629,247.531 230.739 C 246.981 231.148,242.495 236.846,241.987 237.781 C 241.697 238.315,241.113 238.968,240.690 239.232 C 240.266 239.497,239.920 239.900,239.920 240.128 C 239.920 240.356,239.561 240.801,239.122 241.118 C 238.683 241.434,238.318 241.878,238.312 242.104 C 238.306 242.330,237.767 243.039,237.115 243.679 L 235.928 244.844 235.928 200.724 L 235.928 156.604 231.307 156.135 C 228.765 155.878,226.295 155.420,225.818 155.118 C 225.341 154.816,224.321 154.441,223.553 154.283 C 222.237 154.014,214.803 150.631,214.371 150.105 C 214.261 149.971,213.543 149.423,212.774 148.886 C 211.179 147.771,206.622 143.268,205.304 141.503 C 203.179 138.659,201.552 136.028,200.936 134.443 C 200.571 133.503,200.114 132.527,199.920 132.274 C 199.439 131.647,198.004 126.559,198.004 125.484 C 198.004 125.007,197.798 124.549,197.547 124.465 C 196.939 124.263,196.869 112.204,197.468 110.907 C 197.704 110.397,198.205 108.728,198.582 107.197 C 198.959 105.667,199.881 103.103,200.631 101.500 C 201.382 99.897,201.996 98.419,201.996 98.215 C 201.996 98.011,202.239 97.700,202.537 97.525 C 202.834 97.349,203.311 96.756,203.597 96.208 C 205.065 93.388,210.137 88.172,213.627 85.894 C 215.024 84.982,216.347 84.100,216.567 83.934 C 216.786 83.768,217.954 83.186,219.162 82.639 C 220.369 82.092,221.453 81.516,221.570 81.358 C 221.843 80.990,228.459 79.441,229.756 79.441 C 230.296 79.441,230.739 79.261,230.739 79.042 C 230.739 78.805,232.482 78.614,235.030 78.573 C 237.390 78.535,238.558 78.434,237.625 78.350 L 235.928 78.198 235.928 68.839 L 235.928 59.481 237.126 59.481 C 237.784 59.481,238.323 59.301,238.323 59.082 C 238.323 58.842,236.727 58.683,234.331 58.683 C 232.136 58.683,230.339 58.836,230.339 59.023 M238.884 59.143 C 238.769 59.329,239.315 59.481,240.096 59.481 C 240.878 59.481,241.517 59.313,241.517 59.109 C 241.517 58.647,239.172 58.678,238.884 59.143 M241.917 59.780 C 241.917 59.945,242.988 60.086,244.296 60.094 C 245.604 60.101,246.457 59.969,246.192 59.800 C 245.568 59.404,241.916 59.387,241.917 59.780 M247.106 60.207 C 247.106 60.435,248.139 60.823,249.401 61.069 C 250.664 61.315,252.191 61.612,252.794 61.728 C 254.729 62.101,253.966 61.160,251.996 60.743 C 247.916 59.880,247.106 59.791,247.106 60.207 M254.994 62.289 C 255.491 62.489,255.957 62.612,256.031 62.564 C 256.104 62.515,256.417 62.676,256.725 62.921 C 257.033 63.167,258.273 63.684,259.481 64.070 C 260.689 64.457,261.946 64.990,262.275 65.255 C 262.605 65.520,263.772 66.146,264.870 66.647 C 265.968 67.148,266.956 67.692,267.066 67.857 C 267.176 68.022,267.984 68.547,268.862 69.024 C 276.718 73.295,287.137 84.541,291.273 93.214 C 291.901 94.531,292.515 95.699,292.636 95.808 C 292.964 96.104,295.808 103.700,295.811 104.287 C 295.812 104.564,296.074 105.290,296.392 105.901 C 296.711 106.511,296.870 107.275,296.746 107.597 C 296.623 107.920,296.720 108.184,296.963 108.184 C 297.578 108.184,297.515 106.824,296.824 105.170 C 296.504 104.404,296.246 103.736,296.251 103.685 C 296.255 103.634,296.172 103.323,296.065 102.994 C 295.958 102.665,295.563 101.423,295.187 100.235 C 294.811 99.047,293.899 96.851,293.160 95.356 C 292.421 93.860,291.816 92.467,291.816 92.260 C 291.816 92.053,291.682 91.823,291.517 91.750 C 291.352 91.677,290.777 90.808,290.239 89.820 C 289.701 88.832,289.114 87.844,288.935 87.625 C 288.755 87.405,288.117 86.478,287.518 85.564 C 285.347 82.257,278.625 75.107,275.449 72.726 C 274.681 72.150,273.623 71.269,273.099 70.769 C 272.575 70.269,271.936 69.860,271.678 69.860 C 271.420 69.860,270.860 69.539,270.435 69.147 C 268.984 67.809,262.341 64.271,261.279 64.271 C 260.949 64.271,260.679 64.109,260.679 63.911 C 260.679 63.713,259.438 63.174,257.922 62.714 C 255.167 61.877,253.290 61.605,254.994 62.289 M240.020 78.501 C 240.404 78.611,240.719 78.868,240.719 79.071 C 240.719 79.275,241.181 79.441,241.746 79.441 C 243.011 79.441,249.625 81.037,249.900 81.409 C 250.010 81.557,251.088 82.096,252.295 82.606 C 253.503 83.116,254.581 83.665,254.691 83.827 C 254.800 83.988,255.519 84.440,256.287 84.830 C 259.219 86.319,264.556 91.322,266.935 94.810 C 267.534 95.689,268.318 96.766,268.677 97.206 C 269.036 97.645,269.741 98.992,270.244 100.200 C 270.747 101.407,271.271 102.485,271.410 102.595 C 271.990 103.056,273.520 108.836,274.209 113.174 C 274.348 114.052,274.567 114.591,274.695 114.371 C 275.007 113.837,274.039 107.495,273.416 105.988 C 273.144 105.329,272.891 104.701,272.853 104.591 C 272.816 104.481,272.669 104.122,272.527 103.792 C 272.385 103.463,272.019 102.471,271.713 101.588 C 271.408 100.705,270.731 99.324,270.210 98.519 C 269.688 97.715,268.812 96.312,268.263 95.403 C 267.715 94.494,266.658 93.091,265.917 92.284 C 265.175 91.478,264.301 90.414,263.974 89.920 C 263.648 89.426,263.245 89.022,263.078 89.022 C 262.911 89.022,262.079 88.377,261.228 87.588 C 258.365 84.936,252.421 81.370,250.000 80.853 C 249.286 80.700,248.703 80.436,248.703 80.266 C 248.703 80.095,247.310 79.672,245.609 79.325 C 242.466 78.684,238.745 78.136,240.020 78.501 M297.216 109.681 C 297.379 110.284,297.545 111.089,297.584 111.469 C 297.689 112.489,298.204 112.841,298.204 111.893 C 298.204 110.411,297.711 108.583,297.312 108.583 C 297.078 108.583,297.039 109.026,297.216 109.681 M297.976 113.772 C 298.095 114.321,298.195 115.384,298.198 116.134 C 298.204 117.683,298.676 117.516,298.848 115.905 C 298.910 115.321,298.690 114.378,298.360 113.809 L 297.758 112.774 297.976 113.772 M298.603 122.555 C 298.603 124.684,298.765 126.148,299.002 126.148 C 299.239 126.148,299.401 124.684,299.401 122.555 C 299.401 120.426,299.239 118.962,299.002 118.962 C 298.765 118.962,298.603 120.426,298.603 122.555 M274.251 121.956 C 274.251 122.505,274.320 122.954,274.405 122.954 C 274.489 122.954,274.643 122.505,274.748 121.956 C 274.853 121.407,274.784 120.958,274.595 120.958 C 274.406 120.958,274.251 121.407,274.251 121.956 M274.202 123.553 C 274.174 123.663,274.126 123.887,274.096 124.052 C 274.065 124.217,273.892 124.584,273.711 124.869 C 273.530 125.154,273.478 125.637,273.595 125.941 C 273.712 126.246,273.659 126.552,273.478 126.621 C 273.013 126.798,272.505 130.140,272.943 130.140 C 273.296 130.140,273.975 127.806,274.482 124.850 C 274.681 123.693,274.442 122.590,274.202 123.553 M271.099 133.433 C 268.501 139.129,262.608 146.387,258.583 148.850 C 257.759 149.354,257.086 149.887,257.086 150.035 C 257.086 150.183,256.143 150.730,254.990 151.251 C 253.837 151.771,252.625 152.413,252.295 152.677 C 251.649 153.195,247.765 154.491,246.860 154.491 C 246.556 154.491,246.307 154.650,246.307 154.844 C 246.307 155.038,245.911 155.300,245.427 155.427 C 244.942 155.553,244.636 155.747,244.747 155.858 C 245.006 156.118,250.343 154.531,250.998 154.000 C 251.272 153.777,251.497 153.714,251.497 153.859 C 251.497 154.004,251.722 153.937,251.996 153.709 C 252.270 153.481,253.792 152.620,255.378 151.797 C 258.900 149.967,264.409 145.444,264.099 144.636 C 263.979 144.325,264.047 144.172,264.248 144.297 C 264.602 144.515,268.159 140.722,267.972 140.326 C 267.922 140.219,268.592 139.117,269.460 137.877 C 270.329 136.637,270.943 135.467,270.826 135.276 C 270.708 135.086,270.802 134.930,271.034 134.930 C 271.267 134.930,271.457 134.742,271.457 134.512 C 271.457 134.281,271.816 133.350,272.255 132.441 C 273.162 130.564,273.168 130.539,272.737 130.539 C 272.563 130.539,271.826 131.841,271.099 133.433 M241.118 156.057 C 239.730 156.249,239.506 156.371,240.133 156.595 C 240.580 156.755,241.748 156.634,242.728 156.326 C 244.613 155.736,244.083 155.647,241.118 156.057 M70.259 278.244 C 70.259 278.463,69.883 278.643,69.423 278.643 C 68.013 278.643,66.272 279.947,65.063 281.911 L 63.910 283.782 63.785 305.664 C 63.645 329.992,63.771 328.818,60.838 332.992 C 54.676 341.759,42.002 341.903,35.420 333.280 C 32.500 329.454,32.564 330.047,32.428 305.788 C 32.309 284.531,32.286 283.988,31.450 282.132 C 29.192 277.125,20.701 277.338,18.757 282.450 C 17.675 285.294,18.419 334.132,19.544 334.132 C 19.690 334.132,20.036 335.018,20.314 336.102 C 20.592 337.185,21.434 339.093,22.186 340.342 C 22.938 341.590,23.553 342.718,23.553 342.849 C 23.553 342.979,23.901 343.451,24.327 343.898 C 24.752 344.345,25.981 345.654,27.058 346.806 C 28.134 347.959,29.192 348.902,29.408 348.902 C 29.624 348.902,30.201 349.328,30.691 349.849 C 31.180 350.370,32.334 351.129,33.255 351.535 C 34.177 351.941,35.023 352.401,35.137 352.557 C 35.419 352.945,38.571 353.975,40.519 354.316 C 41.397 354.469,42.359 354.789,42.656 355.025 C 43.395 355.614,52.796 355.628,53.531 355.042 C 53.840 354.796,54.810 354.472,55.689 354.322 C 57.401 354.028,60.749 352.892,61.078 352.493 C 61.188 352.359,61.842 352.022,62.533 351.743 C 63.223 351.464,64.122 350.930,64.529 350.557 C 64.936 350.184,65.872 349.453,66.609 348.934 C 67.346 348.414,68.679 347.273,69.571 346.399 C 71.110 344.890,71.222 344.847,71.737 345.558 C 72.841 347.082,74.560 348.719,75.666 349.301 C 76.292 349.631,77.244 350.304,77.781 350.798 C 78.319 351.292,78.990 351.697,79.271 351.697 C 79.553 351.697,80.049 351.962,80.373 352.286 C 82.704 354.618,95.963 356.429,99.601 354.912 C 100.040 354.729,101.512 354.292,102.873 353.941 C 105.447 353.276,110.579 350.694,110.579 350.063 C 110.579 349.864,110.863 349.701,111.210 349.701 C 111.959 349.701,117.620 343.997,117.973 342.887 C 118.107 342.463,118.359 342.116,118.532 342.116 C 119.289 342.116,122.163 335.287,122.593 332.468 C 122.838 330.858,123.193 329.238,123.382 328.869 C 123.840 327.974,123.868 284.749,123.411 284.467 C 123.216 284.347,122.953 283.728,122.826 283.092 C 122.523 281.578,120.230 279.173,118.741 278.808 C 118.094 278.650,117.442 278.331,117.291 278.101 C 117.102 277.810,116.734 277.820,116.094 278.131 C 115.586 278.378,114.667 278.690,114.052 278.824 C 113.438 278.957,112.270 279.676,111.458 280.420 L 109.980 281.774 109.764 304.460 C 109.646 316.937,109.402 327.505,109.224 327.944 C 103.582 341.806,86.242 343.941,80.040 331.537 C 79.601 330.659,79.139 329.850,79.013 329.741 C 78.203 329.033,78.041 325.593,77.854 305.057 C 77.674 285.362,77.561 282.104,77.046 281.695 C 76.717 281.433,76.252 280.864,76.014 280.430 C 75.776 279.996,74.745 279.358,73.723 279.013 C 72.701 278.667,71.743 278.263,71.594 278.114 C 71.183 277.703,70.259 277.792,70.259 278.244 M221.968 289.888 C 220.547 290.091,219.290 290.406,219.174 290.587 C 219.057 290.769,218.340 291.053,217.581 291.218 C 215.562 291.656,212.774 292.921,212.774 293.399 C 212.774 293.626,212.537 293.812,212.248 293.812 C 211.958 293.812,210.970 294.455,210.052 295.241 L 208.383 296.669 208.383 294.261 C 208.383 290.441,207.524 289.820,202.236 289.820 C 198.421 289.820,198.043 289.892,197.064 290.799 L 196.008 291.778 196.008 322.873 C 196.008 359.537,195.157 355.289,202.504 355.289 C 209.450 355.289,208.782 357.351,208.782 335.894 C 208.782 325.753,208.953 317.374,209.184 316.156 C 210.828 307.487,217.706 301.841,226.665 301.806 C 230.584 301.791,231.138 301.032,231.138 295.681 C 231.138 289.368,230.119 288.725,221.968 289.888 M154.092 290.067 C 153.543 290.169,152.735 290.408,152.295 290.598 C 151.856 290.788,150.599 291.167,149.501 291.440 C 145.482 292.440,139.084 296.401,135.922 299.849 C 133.670 302.304,131.737 304.831,131.737 305.318 C 131.737 305.546,131.476 305.992,131.158 306.310 C 127.413 310.055,125.536 328.964,128.495 333.134 C 128.651 333.353,129.202 334.611,129.718 335.928 C 130.235 337.246,130.866 338.593,131.120 338.922 C 131.374 339.251,131.795 340.020,132.055 340.630 C 132.315 341.240,132.799 341.843,133.130 341.970 C 133.462 342.097,133.733 342.428,133.733 342.704 C 133.733 343.279,139.909 349.301,140.499 349.301 C 140.712 349.301,141.208 349.645,141.601 350.065 C 141.994 350.485,143.124 351.146,144.112 351.534 C 145.100 351.923,146.020 352.406,146.156 352.607 C 146.526 353.154,153.452 354.945,156.944 355.397 C 167.428 356.754,182.750 349.489,186.672 341.301 C 187.086 340.437,187.552 339.728,187.706 339.725 C 188.816 339.707,191.971 330.559,192.002 327.269 C 192.010 326.459,192.196 325.685,192.415 325.549 C 192.912 325.242,192.944 320.399,192.455 319.456 C 192.258 319.074,191.881 317.338,191.619 315.597 C 191.356 313.857,190.710 311.488,190.182 310.334 C 189.654 309.179,189.222 308.064,189.222 307.855 C 189.222 307.646,188.593 306.561,187.824 305.444 C 187.056 304.326,186.427 303.292,186.427 303.145 C 186.427 302.892,181.090 297.642,179.249 296.084 C 178.779 295.686,177.642 294.959,176.723 294.467 C 175.803 293.975,174.601 293.282,174.052 292.926 C 173.503 292.569,171.976 291.987,170.659 291.631 C 169.341 291.274,167.904 290.778,167.465 290.526 C 166.663 290.068,156.052 289.704,154.092 290.067 M163.179 302.951 C 163.560 303.146,164.932 303.613,166.228 303.988 C 170.072 305.100,174.919 309.019,176.650 312.412 C 177.087 313.270,177.579 314.072,177.743 314.194 C 179.915 315.815,179.803 329.551,177.603 331.337 C 177.468 331.447,177.075 332.087,176.731 332.760 C 172.324 341.366,157.448 345.237,149.775 339.774 C 149.118 339.305,148.462 338.922,148.319 338.922 C 147.919 338.922,144.112 335.084,144.112 334.680 C 144.112 334.484,143.752 334.099,143.313 333.825 C 142.874 333.551,142.515 333.161,142.515 332.959 C 142.515 332.756,141.975 331.424,141.315 329.998 C 139.539 326.161,139.260 317.319,140.878 316.168 C 141.033 316.058,141.472 315.132,141.855 314.110 C 142.238 313.089,142.948 311.821,143.431 311.293 C 143.915 310.766,144.872 309.690,145.558 308.904 C 147.376 306.818,151.480 304.297,153.964 303.741 C 155.152 303.476,156.216 303.109,156.329 302.926 C 156.604 302.481,162.304 302.501,163.179 302.951 " stroke="none" fill="#fb5454" fill-rule="evenodd"></path><path id="path4" d="M187.425 18.154 C 181.536 19.096,181.208 19.333,168.690 31.688 C 163.435 36.875,158.989 41.118,158.810 41.118 C 158.630 41.118,158.483 41.387,158.483 41.717 C 158.483 42.046,158.305 42.315,158.088 42.315 C 157.481 42.315,156.088 43.628,156.088 44.200 C 156.088 44.481,155.929 44.711,155.734 44.711 C 155.173 44.711,150.898 48.863,150.898 49.408 C 150.898 49.679,150.748 49.855,150.565 49.800 C 150.138 49.673,142.914 56.723,142.914 57.267 C 142.914 57.492,139.815 60.819,136.028 64.661 L 129.142 71.646 135.928 65.055 C 139.661 61.430,150.798 50.518,160.679 40.806 C 170.559 31.093,178.912 22.900,179.242 22.599 C 180.708 21.258,185.731 19.139,188.005 18.901 C 189.448 18.750,190.457 18.440,190.584 18.109 C 190.699 17.810,190.754 17.583,190.706 17.604 C 190.658 17.626,189.182 17.874,187.425 18.154 M193.214 18.363 C 193.214 18.583,193.810 18.762,194.538 18.762 C 199.739 18.762,202.306 20.594,216.376 34.342 C 223.224 41.033,228.987 46.567,229.184 46.640 C 229.998 46.943,229.448 45.952,228.144 44.765 C 227.375 44.066,226.747 43.288,226.747 43.038 C 226.747 42.787,226.643 42.685,226.516 42.812 C 226.231 43.097,222.801 39.822,223.005 39.460 C 223.086 39.317,222.524 38.829,221.756 38.376 C 220.988 37.923,220.345 37.231,220.328 36.840 C 220.309 36.406,220.216 36.327,220.092 36.636 C 219.961 36.962,219.480 36.632,218.753 35.716 C 218.129 34.931,217.505 34.308,217.366 34.331 C 217.072 34.379,215.369 32.288,215.369 31.879 C 215.369 31.728,215.235 31.469,215.070 31.304 C 214.905 31.139,214.770 31.187,214.770 31.411 C 214.770 31.634,212.570 29.678,209.880 27.065 C 203.444 20.810,203.533 20.888,202.497 20.576 C 202.005 20.428,201.345 20.051,201.032 19.738 C 199.858 18.563,193.214 17.395,193.214 18.363 M229.678 46.807 C 229.539 47.032,230.644 48.404,232.134 49.856 L 234.842 52.495 232.092 52.724 L 229.341 52.953 232.412 53.023 C 236.432 53.116,236.462 52.908,232.929 49.386 C 231.278 47.740,229.818 46.582,229.678 46.807 M227.246 53.369 C 227.630 53.469,228.258 53.469,228.643 53.369 C 229.027 53.269,228.713 53.186,227.944 53.186 C 227.176 53.186,226.861 53.269,227.246 53.369 M208.184 58.262 C 207.305 58.677,206.700 59.032,206.837 59.050 C 207.225 59.099,209.980 57.898,209.980 57.679 C 209.980 57.412,209.979 57.412,208.184 58.262 M199.102 62.903 C 197.609 63.713,197.700 64.050,199.202 63.273 C 199.860 62.933,200.399 62.569,200.399 62.465 C 200.399 62.208,200.356 62.222,199.102 62.903 M192.016 67.864 C 191.467 68.294,191.215 68.649,191.455 68.654 C 191.696 68.659,192.217 68.303,192.615 67.864 C 193.525 66.858,193.302 66.858,192.016 67.864 M189.437 70.057 C 188.787 70.588,188.351 71.118,188.468 71.236 C 188.585 71.353,189.195 70.912,189.824 70.255 C 191.199 68.820,191.046 68.742,189.437 70.057 M186.627 72.655 C 186.229 73.094,186.105 73.453,186.351 73.453 C 186.597 73.453,186.991 73.094,187.226 72.655 C 187.461 72.216,187.585 71.856,187.501 71.856 C 187.418 71.856,187.024 72.216,186.627 72.655 M181.760 78.144 C 178.211 82.566,177.307 83.937,178.157 83.611 C 178.494 83.482,178.989 82.846,179.257 82.198 C 179.777 80.942,180.772 79.994,180.312 81.193 C 180.147 81.624,180.206 81.781,180.471 81.617 C 180.703 81.474,180.802 81.119,180.691 80.830 C 180.580 80.540,181.557 79.032,182.862 77.477 C 184.167 75.923,185.084 74.651,184.899 74.651 C 184.714 74.651,183.301 76.223,181.760 78.144 M117.980 82.219 C 117.132 83.088,116.319 83.726,116.175 83.637 C 115.833 83.426,111.377 87.970,111.377 88.532 C 111.377 88.769,111.122 89.021,110.809 89.092 C 109.432 89.406,79.122 119.974,79.658 120.510 C 79.762 120.614,79.509 121.072,79.096 121.527 C 78.682 121.983,78.038 123.343,77.664 124.551 C 77.290 125.758,76.880 127.016,76.752 127.345 C 76.624 127.675,76.558 128.107,76.604 128.307 C 76.651 128.506,76.492 128.791,76.251 128.940 C 75.678 129.294,75.190 134.930,75.733 134.930 C 75.952 134.930,76.238 133.657,76.369 132.101 C 76.499 130.546,76.767 129.063,76.965 128.808 C 77.162 128.552,77.638 127.355,78.024 126.148 C 79.674 120.975,80.851 119.602,98.611 102.138 C 113.133 87.857,120.203 80.639,119.668 80.639 C 119.588 80.639,118.829 81.350,117.980 82.219 M177.027 84.557 C 176.267 85.103,171.626 94.033,170.868 96.407 C 170.588 97.285,170.039 98.723,169.649 99.601 C 169.258 100.479,168.633 102.725,168.259 104.591 C 167.885 106.457,167.394 108.376,167.169 108.855 C 166.944 109.335,166.864 109.997,166.990 110.327 C 167.117 110.656,167.039 110.987,166.817 111.061 C 165.719 111.427,166.143 133.967,167.270 135.094 C 167.745 135.570,167.745 135.521,167.262 131.936 C 166.453 125.935,167.016 109.261,168.051 108.583 C 168.218 108.473,168.561 107.216,168.812 105.788 C 169.278 103.139,170.370 99.279,170.450 100.000 C 170.499 100.444,171.562 97.657,171.820 96.407 C 172.093 95.081,172.520 94.212,172.897 94.212 C 173.093 94.212,173.253 93.946,173.253 93.621 C 173.253 92.700,175.344 87.836,175.657 88.029 C 175.810 88.124,176.222 87.472,176.572 86.581 C 176.934 85.659,177.389 85.071,177.626 85.218 C 177.856 85.360,178.044 85.297,178.044 85.077 C 178.044 84.519,177.481 84.231,177.027 84.557 M167.665 137.325 C 167.665 138.071,167.771 138.177,168.144 137.804 C 168.516 137.432,168.516 137.219,168.144 136.846 C 167.771 136.474,167.665 136.580,167.665 137.325 M75.574 138.822 C 75.915 141.681,76.053 142.147,76.675 142.541 C 76.989 142.739,77.076 142.905,76.868 142.908 C 76.138 142.920,79.178 145.678,80.383 146.098 C 81.741 146.572,169.229 146.223,169.760 145.741 C 169.924 145.593,169.789 144.438,169.460 143.175 C 169.131 141.912,168.862 140.449,168.862 139.924 C 168.862 139.399,168.683 138.858,168.463 138.723 C 167.886 138.366,168.602 142.726,169.507 145.085 C 169.897 146.102,82.275 146.028,80.247 145.009 C 78.326 144.045,76.564 141.280,76.332 138.866 C 76.230 137.799,75.966 136.926,75.747 136.926 C 75.505 136.926,75.437 137.673,75.574 138.822 " stroke="none" fill="#119cac" fill-rule="evenodd"></path></g></svg>