<svg id="svg" xmlns="http://www.w3.org/2000/svg" xmlns:xlink="http://www.w3.org/1999/xlink" width="400" height="400" viewBox="0, 0, 400,400"><g id="svgg"><path id="path0" d="M116.667 55.447 C 96.216 61.893,61.338 98.009,55.067 119.233 C 26.016 217.560,116.432 298.699,207.705 256.209 C 234.269 243.843,233.333 243.953,233.333 253.203 C 233.333 257.257,252.083 279.252,274.999 302.082 L 316.665 343.592 330.128 330.128 L 343.592 316.665 302.082 274.999 C 279.252 252.083,257.257 233.333,253.203 233.333 C 243.953 233.333,243.843 234.269,256.209 207.705 C 298.990 115.807,215.206 24.388,116.667 55.447 M196.160 96.974 C 256.878 137.892,230.760 229.167,158.333 229.167 C 85.581 229.167,59.516 138.076,120.507 96.974 C 140.156 83.732,176.510 83.732,196.160 96.974 " stroke="none" fill="#000000" fill-rule="evenodd"></path></g></svg>